# xmcd CD database file
# Copyright (C) 1996 Ti Kan
#
# Track frame offsets:
#  150
#  12885
#  25677
#  39525
#  51875
#  65015
#  76600
#  87762
#  102195
#  113790
#  127537
#  139647
#  151055
#  161842
#  173240
#  183972
#  195442
#  204407
#
# Disc length: 2896 seconds
#
# Revision: 1
# Processed by: cddbd v1.4b41PL1 Copyright (c) Steve Scherf et al.
# Submitted via: CDWizzard Release:4.12
#
DISCID=d30b4e12
DTITLE=Turner, Big Joe - Jumpin' With Joe:  The Complete Aladdin and Imperi
DTITLE=al Recordings
DYEAR=1900
DGENRE=
TTITLE0=Battle Of The Blues, Part 1 (Alt. Take)
TTITLE1=Battle Of The Blues, Part 2
TTITLE2=Coming Home
TTITLE3=Blues
TTITLE4=Roll 'Em Pete
TTITLE5=Ice Man Blues
TTITLE6=Morning Glory
TTITLE7=Nobody In Mind
TTITLE8=Low Down Dog
TTITLE9=Back Breaking Blues
TTITLE10=Empty Pocket Blues
TTITLE11=Story To Tell
TTITLE12=Jumpin' Tonight (Midnight Rockin')
TTITLE13=Lucille
TTITLE14=Love My Baby (Little Bitty Baby)
TTITLE15=Blues Jump The Rabbit
TTITLE16=The Sun Is Shining
TTITLE17=Battle Of The Blues, Part 1
EXTD=
EXTT0=
EXTT1=
EXTT2=
EXTT3=
EXTT4=
EXTT5=
EXTT6=
EXTT7=
EXTT8=
EXTT9=
EXTT10=
EXTT11=
EXTT12=
EXTT13=
EXTT14=
EXTT15=
EXTT16=
EXTT17=
PLAYORDER=
